<?xml version="1.0" encoding="utf-8"?>
<!-- Generator: Adobe Illustrator 25.2.1, SVG Export Plug-In . SVG Version: 6.00 Build 0)  -->
<svg version="1.1" id="Capa_1" xmlns="http://www.w3.org/2000/svg" xmlns:xlink="http://www.w3.org/1999/xlink" x="0px" y="0px"
	 viewBox="0 0 1024 1024" style="enable-background:new 0 0 1024 1024;" xml:space="preserve">
<style type="text/css">
	.st0{fill:url(#SVGID_1_);}
	.st1{fill:url(#SVGID_2_);}
	.st2{fill:#FFFFFF;}
</style>
<linearGradient id="SVGID_1_" gradientUnits="userSpaceOnUse" x1="69.3437" y1="954.7063" x2="956.6679" y2="67.3821">
	<stop  offset="0.25" style="stop-color:#42A3F2"/>
	<stop  offset="0.75" style="stop-color:#72CCF0"/>
</linearGradient>
<path class="st0" d="M853.3,0H170.7C76.4,0,0,76.4,0,170.7v682.7C0,947.6,76.4,1024,170.7,1024h682.7c94.3,0,170.7-76.4,170.7-170.7
	V170.7C1024,76.4,947.6,0,853.3,0z"/>
<linearGradient id="SVGID_2_" gradientUnits="userSpaceOnUse" x1="112.0846" y1="911.9467" x2="913.9265" y2="110.1048">
	<stop  offset="0.25" style="stop-color:#11408A"/>
	<stop  offset="0.75" style="stop-color:#1D59B3"/>
</linearGradient>
<path class="st1" d="M967.2,170.7v682.7c-0.1,62.8-51,113.7-113.9,113.7H170.7c-62.8,0-113.8-50.9-113.8-113.8V170.7
	c0-62.8,50.9-113.8,113.8-113.8h682.7C916.2,56.9,967.2,107.8,967.2,170.7z"/>
<g>
	<path class="st2" d="M242,266.6c0-3,2.2-5.5,5.2-5.9c11.4-1.3,43.1-3.8,110.8-3.8c102.1,0,173.5,40.5,173.5,151.2
		c0,99.9-68,158.5-177.7,158.5c-6.4,0-12.8,0-34.6,0v167.3c0,2.8-2.3,5.1-5.1,5.1H247c-2.8,0-5.1-2.3-5.1-5.1L242,266.6L242,266.6z
		 M319.2,496.3c0,0,33.8,0.2,41.4,0.2c62.7,0,91.2-37.1,91.2-86.9c0-46.6-27.7-83-85.6-83c-23.9,0-46.9,1.4-46.9,1.4L319.2,496.3
		L319.2,496.3z"/>
	<path class="st2" d="M573.3,653.4c0-2.7,2.9-4.4,5.2-2.9c14.3,9.6,43.4,26,88.5,26c29.4,0,48-12.7,48-33.3
		c0-22.9-31.4-39.5-57.4-53.5c-25.8-14-83.7-36.5-83.7-108.8c0-64.1,51.3-102.8,121.1-102.8c26.7,0,56.2,4.2,76.1,11.4
		c3.3,1.2,5.3,4.4,5.3,7.9v65.2c0,2.7-2.8,4.4-5.1,2.9c-12.5-8.2-40-20.7-77.9-20.7c-31.5,0-45.4,15.4-45.4,31
		c0,27.4,36.5,38.9,69.3,58.1c51.1,28.4,74.8,56.2,74.8,99.8c0,71.2-53.1,111.2-125,111.2c-37.1,0-72.1-8.1-89.9-19
		c-2.5-1.5-3.7-4.2-3.7-7.1L573.3,653.4z"/>
</g>
</svg>
