<?xml version="1.0" encoding="utf-8"?>
<!-- Generator: Adobe Illustrator 25.2.1, SVG Export Plug-In . SVG Version: 6.00 Build 0)  -->
<svg version="1.1" id="Capa_1" xmlns="http://www.w3.org/2000/svg" xmlns:xlink="http://www.w3.org/1999/xlink" x="0px" y="0px"
	 viewBox="0 0 1024 1024" style="enable-background:new 0 0 1024 1024;" xml:space="preserve">
<style type="text/css">
	.st0{fill:url(#SVGID_1_);}
	.st1{fill:url(#SVGID_2_);}
	.st2{fill:#FFFFFF;}
</style>
<linearGradient id="SVGID_1_" gradientUnits="userSpaceOnUse" x1="72.069" y1="951.981" x2="956.608" y2="67.442">
	<stop  offset="0.25" style="stop-color:#ED6C47"/>
	<stop  offset="0.75" style="stop-color:#FF8F6B"/>
</linearGradient>
<path class="st0" d="M853.3,0H170.7C76.4,0,0,76.4,0,170.7v682.7C0,947.6,76.4,1024,170.7,1024h682.7c94.3,0,170.7-76.4,170.7-170.7
	V170.7C1024,76.4,947.6,0,853.3,0z"/>
<linearGradient id="SVGID_2_" gradientUnits="userSpaceOnUse" x1="107.3123" y1="916.7189" x2="917.6859" y2="106.3453">
	<stop  offset="0.25" style="stop-color:#B63016"/>
	<stop  offset="0.75" style="stop-color:#CA4E2A"/>
</linearGradient>
<path class="st1" d="M853.3,967.1H170.7c-62.8,0-113.8-50.9-113.8-113.8V170.7c0-62.8,50.9-113.8,113.8-113.8h682.7
	c62.8,0,113.8,50.9,113.8,113.8v682.7C967.1,916.2,916.2,967.1,853.3,967.1z"/>
<path class="st2" d="M578.7,739.5h-60.6c-6.5,0-12.3-4.5-13.8-10.8l-20.9-85.5c-1.6-6.4-7.3-10.8-13.8-10.8H361.1
	c-6.6,0-12.3,4.5-13.8,10.9l-20.7,85.5c-1.5,6.4-7.3,10.9-13.8,10.9h-59.9c-9.4,0-16.2-9-13.7-18l126-453.7
	c1.7-6.1,7.3-10.4,13.7-10.4h76.6c6.4,0,12,4.3,13.7,10.5l123.2,453.5C594.9,730.6,588.1,739.5,578.7,739.5z M443.7,549
	c9.2,0,16-8.6,13.8-17.6L422.3,387c-2.9-12.1-4.9-26.6-6.1-43.3h-2c-0.9,14.1-3,28.1-6.4,42l-35.7,145.7c-2.2,9,4.6,17.6,13.8,17.6
	H443.7L443.7,549z"/>
<path class="st2" d="M692.8,340.9c-13.7,0-24.9-5.3-33.6-16s-13.1-23.7-13.1-39.2c0-15.9,4.4-28.9,13.1-39s19.9-15.1,33.6-15.1
	c13.9,0,25.1,5.1,33.8,15.1c8.6,10.1,13,23.1,13,39c0,16.1-4.3,29.4-13,39.7C717.9,335.8,706.7,340.9,692.8,340.9z M718.6,739.5H666
	c-7.9,0-14.2-6.4-14.2-14.2V409.6c0-7.9,6.4-14.2,14.2-14.2h52.7c7.9,0,14.2,6.4,14.2,14.2v315.7
	C732.9,733.2,726.5,739.5,718.6,739.5z"/>
</svg>
