<?xml version="1.0" encoding="utf-8"?>
<!-- Generator: Adobe Illustrator 25.2.1, SVG Export Plug-In . SVG Version: 6.00 Build 0)  -->
<svg version="1.1" id="Capa_1" xmlns="http://www.w3.org/2000/svg" xmlns:xlink="http://www.w3.org/1999/xlink" x="0px" y="0px"
	 viewBox="0 0 1024 1024" style="enable-background:new 0 0 1024 1024;" xml:space="preserve">
<style type="text/css">
	.st0{fill:url(#SVGID_1_);}
	.st1{fill:#FFFFFF;}
	.st2{fill:url(#SVGID_2_);}
</style>
<g>
	<g transform="scale(5.33333,5.33333)">
		
			<linearGradient id="SVGID_1_" gradientUnits="userSpaceOnUse" x1="45.6085" y1="137.9756" x2="69.6349" y2="184.1564" gradientTransform="matrix(113.7775 0 0 113.7775 -5141.4097 -15695.1367)">
			<stop  offset="0" style="stop-color:#FFB318"/>
			<stop  offset="0.443" style="stop-color:#FF9518"/>
			<stop  offset="1" style="stop-color:#B26810"/>
		</linearGradient>
		<path class="st0" d="M96,0C43,0,0,43,0,96s43,96,96,96s96-43,96-96S149,0,96,0z"/>
		<path class="st1" d="M96,134.4c-7.9,0-14.4-6.5-14.4-14.4V72c0-2.6-2.2-4.8-4.8-4.8c-2.6,0-4.8,2.2-4.8,4.8v28.8
			c0,7.9-6.5,14.4-14.4,14.4h-24v-9.6h24c2.6,0,4.8-2.2,4.8-4.8V72c0-7.9,6.5-14.4,14.4-14.4S91.2,64.1,91.2,72v48
			c0,2.6,2.2,4.8,4.8,4.8c2.6,0,4.8-2.2,4.8-4.8V91.2c0-7.9,6.5-14.4,14.4-14.4s14.4,6.5,14.4,14.4v9.6c0,2.6,2.2,4.8,4.8,4.8h24
			v9.6h-24c-7.9,0-14.4-6.5-14.4-14.4v-9.6c0-2.6-2.2-4.8-4.8-4.8c-2.6,0-4.8,2.2-4.8,4.8V120C110.4,127.9,103.9,134.4,96,134.4z"/>
	</g>
</g>
<linearGradient id="SVGID_2_" gradientUnits="userSpaceOnUse" x1="858.9006" y1="858.9006" x2="164.6674" y2="164.6674">
	<stop  offset="0.25" style="stop-color:#343434"/>
	<stop  offset="0.75" style="stop-color:#4C4C4C"/>
</linearGradient>
<path class="st2" d="M512,0C229.2,0,0,229.2,0,512s229.2,512,512,512s512-229.2,512-512S794.8,0,512,0z M512,934.3
	C278.8,934.3,89.7,745.2,89.7,512S278.8,89.7,512,89.7S934.3,278.8,934.3,512S745.2,934.3,512,934.3z"/>
</svg>
