<?xml version="1.0" encoding="utf-8"?>
<!-- Generator: Adobe Illustrator 25.2.1, SVG Export Plug-In . SVG Version: 6.00 Build 0)  -->
<svg version="1.1" id="Capa_1" xmlns="http://www.w3.org/2000/svg" xmlns:xlink="http://www.w3.org/1999/xlink" x="0px" y="0px"
	 viewBox="0 0 1024 1024" style="enable-background:new 0 0 1024 1024;" xml:space="preserve">
<style type="text/css">
	.st0{fill-rule:evenodd;clip-rule:evenodd;fill:url(#SVGID_1_);}
	.st1{fill-rule:evenodd;clip-rule:evenodd;fill:url(#SVGID_2_);}
	.st2{fill-rule:evenodd;clip-rule:evenodd;fill:url(#SVGID_3_);}
</style>
<linearGradient id="SVGID_1_" gradientUnits="userSpaceOnUse" x1="-123.4957" y1="1044.8556" x2="-123.3071" y2="1044.8556" gradientTransform="matrix(4642.1338 0 0 5450.0845 573413.875 -5694039)">
	<stop  offset="0" style="stop-color:#E68E00"/>
	<stop  offset="0.437" style="stop-color:#D75500"/>
	<stop  offset="0.562" style="stop-color:#CF3600"/>
	<stop  offset="0.89" style="stop-color:#D22900"/>
	<stop  offset="1" style="stop-color:#D42400"/>
</linearGradient>
<path class="st0" d="M917.6,245.6l24-59c0,0-30.5-32.7-67.6-69.9c-37.1-37.1-115.6-15.3-115.6-15.3L669,0H512H355l-89.4,101.5
	c0,0-78.5-21.8-115.6,15.3s-67.6,69.9-67.6,69.9l24,59L75.9,333c0,0,89.8,340.5,100.3,382.1c20.7,81.9,34.9,113.5,93.8,155
	c58.9,41.5,165.7,113.5,183.1,124.4c17.4,10.9,39.2,29.5,58.9,29.5c19.6,0,41.4-18.6,58.9-29.5c17.4-10.9,124.3-83,183.1-124.4
	c58.9-41.5,73-73.1,93.8-155C858.3,673.5,948.1,333,948.1,333L917.6,245.6z"/>
<linearGradient id="SVGID_2_" gradientUnits="userSpaceOnUse" x1="214.7311" y1="908.0823" x2="229.2075" y2="879.6711" gradientTransform="matrix(21.3333 0 0 -21.3333 -4188.667 19486.668)">
	<stop  offset="0" style="stop-color:#FFFFFF"/>
	<stop  offset="0.24" style="stop-color:#F8F8F7"/>
	<stop  offset="1" style="stop-color:#E3E3E1"/>
</linearGradient>
<path class="st1" d="M733.3,166c0,0,115,139.2,115,168.9c0,29.7-14.5,37.6-29,53.1s-78.1,83-86.2,91.7c-8.2,8.7-25.1,21.8-15.1,45.5
	c10,23.7,24.7,53.8,8.3,84.3c-16.4,30.5-44.5,50.9-62.4,47.6c-18-3.4-60.2-25.5-75.8-35.6s-64.8-50.8-64.8-66.3
	c0-15.6,50.9-43.5,60.3-49.8c9.4-6.3,52.3-30.9,53.2-40.5c0.9-9.7,0.5-12.5-12.1-36.3c-12.7-23.8-35.4-55.6-31.6-76.8
	c3.8-21.2,40.5-32.2,66.8-42.1c26.2-9.9,76.8-28.6,83-31.6c6.3-2.9,4.7-5.7-14.4-7.5c-19.1-1.8-73.4-9-97.8-2.2S564.3,285.5,561,291
	c-3.4,5.5-6.4,5.7-2.9,24.7s21.4,110.1,23.1,126.3c1.7,16.2,5.1,26.9-12.3,30.9c-17.4,4-46.8,10.9-56.9,10.9
	c-10.1,0-39.4-6.9-56.9-10.9c-17.4-4-14-14.7-12.3-30.9s19.6-107.3,23.1-126.3c3.5-19,0.5-19.2-2.9-24.7
	c-3.4-5.5-45.2-15.9-69.6-22.7s-78.7,0.4-97.8,2.2c-19.1,1.8-20.7,4.6-14.4,7.5c6.3,2.9,56.8,21.7,83,31.6
	c26.2,9.9,63,20.9,66.8,42.1c3.8,21.2-19,53-31.6,76.8c-12.7,23.8-13,26.6-12.1,36.3c0.9,9.6,43.8,34.2,53.2,40.5
	s60.3,34.3,60.3,49.8s-49.2,56.2-64.8,66.3s-57.8,32.2-75.8,35.6c-18,3.4-46.1-17-62.4-47.6c-16.4-30.5-1.7-60.7,8.3-84.3
	c10-23.7-7-36.8-15.1-45.5c-8.1-8.7-71.7-76.2-86.2-91.7c-14.6-15.5-29-23.3-29-53.1s115-168.9,115-168.9s97,18.6,110.1,18.6
	c13.1,0,41.4-10.9,67.6-19.7c26.1-8.7,43.5-8.8,43.5-8.8s17.4,0.1,43.6,8.8c26.2,8.7,54.5,19.7,67.6,19.7
	C636.3,184.5,733.3,166,733.3,166z M647.1,698.3c7.1,4.5,2.8,12.9-3.7,17.5s-93.6,72.1-102.1,79.6s-20.9,19.8-29.3,19.8
	c-8.5,0-20.9-12.3-29.3-19.8c-8.5-7.5-95.6-75-102.1-79.6s-10.8-13-3.7-17.5c7.1-4.5,29.4-15.7,60.1-31.6c30.7-15.9,69-29.5,75-29.5
	c6,0,44.3,13.5,75,29.5C617.7,682.6,640,693.9,647.1,698.3z"/>
<linearGradient id="SVGID_3_" gradientUnits="userSpaceOnUse" x1="-123.3527" y1="1048.3204" x2="-123.1184" y2="1048.3204" gradientTransform="matrix(3852.9707 0 0 982.0522 475163.0625 -1029413.25)">
	<stop  offset="0" style="stop-color:#E68E00"/>
	<stop  offset="1" style="stop-color:#D42400"/>
</linearGradient>
<path class="st2" d="M758.4,101.5L669,0H512H355l-89.4,101.5c0,0-78.5-21.8-115.6,15.3c0,0,104.7-9.5,140.7,49.1
	c0,0,97,18.6,110.1,18.6c13.1,0,41.4-10.9,67.6-19.7c26.2-8.7,43.6-8.8,43.6-8.8s17.4,0.1,43.6,8.8c26.2,8.7,54.5,19.7,67.6,19.7
	c13.1,0,110.1-18.6,110.1-18.6c36-58.6,140.7-49.1,140.7-49.1C836.9,79.7,758.4,101.5,758.4,101.5"/>
</svg>
