<?xml version="1.0" encoding="utf-8"?>
<!-- Generator: Adobe Illustrator 25.2.1, SVG Export Plug-In . SVG Version: 6.00 Build 0)  -->
<svg version="1.1" id="Capa_1" xmlns="http://www.w3.org/2000/svg" xmlns:xlink="http://www.w3.org/1999/xlink" x="0px" y="0px"
	 viewBox="0 0 1024 1024" style="enable-background:new 0 0 1024 1024;" xml:space="preserve">
<style type="text/css">
	.st0{opacity:5.000000e-02;enable-background:new    ;}
	.st1{fill:url(#SVGID_1_);}
</style>
<ellipse class="st0" cx="360.7" cy="558.6" rx="104.7" ry="116.4"/>
<ellipse class="st0" cx="360.7" cy="558.6" rx="93.1" ry="104.7"/>
<radialGradient id="SVGID_1_" cx="512" cy="837.8593" r="750.5985" gradientTransform="matrix(1 0 0 -1 0 1024)" gradientUnits="userSpaceOnUse">
	<stop  offset="0" style="stop-color:#8C9EFF"/>
	<stop  offset="0.368" style="stop-color:#889AF8"/>
	<stop  offset="0.889" style="stop-color:#7E8FE6"/>
	<stop  offset="1" style="stop-color:#7B8CE1"/>
</radialGradient>
<path class="st1" d="M1024,739.7c-19.5-308.2-120.5-477.7-137.1-503.5c-1.5-2.4-3.3-4.3-5.5-5.9c-8.3-6.2-133.6-90.5-229.6-90.5
	c-6,0-19.2,25.6-23.7,46.3c-46.4,0-186.1-0.1-232.6,0.1c-5.5-19.5-19.6-46.4-23.5-46.4c-95.9,0-220.8,83.9-229.5,90.4
	c-2.3,1.7-3.9,3.6-5.5,5.9C120.7,261.9,19.7,431.5,0,739.7c-0.2,3.3,1,6.8,3.2,9.2c106.9,119.7,260.3,133.9,293,135.5
	c3.9,0.2,7.7-1.4,9.9-4.6l25.5-38.7l-75.5-35.9v-37.4c147.3,65.6,357.4,72.2,511.9,0.4l0.7,37l-74.6,38.4l23.9,36.3
	c2.2,3.3,6,4.8,9.9,4.6c32.7-1.6,186.1-15.8,292.9-135.5C1023,746.3,1024.2,742.9,1024,739.7z M360.7,651.6
	c-44.9,0-81.5-41.7-81.5-93.1s36.4-93.1,81.5-93.1c44.9,0,81.5,41.7,81.5,93.1S405.7,651.6,360.7,651.6z M663.3,651.6
	c-44.9,0-81.5-41.7-81.5-93.1s36.4-93.1,81.5-93.1c45.1,0,81.5,41.7,81.5,93.1S708.3,651.6,663.3,651.6z"/>
<path class="st0" d="M663.3,442.2c-57.8,0-104.7,52.1-104.7,116.4S605.5,675,663.3,675c57.8,0,104.7-52.1,104.7-116.4
	S721.1,442.2,663.3,442.2z M663.3,651.6c-44.9,0-81.5-41.7-81.5-93.1s36.4-93.1,81.5-93.1c45.1,0,81.5,41.7,81.5,93.1
	S708.3,651.6,663.3,651.6z"/>
<path class="st0" d="M663.3,453.8c-51.4,0-93.1,46.9-93.1,104.7s41.7,104.7,93.1,104.7c51.4,0,93.1-46.9,93.1-104.7
	S714.7,453.8,663.3,453.8z M663.3,651.6c-44.9,0-81.5-41.7-81.5-93.1s36.4-93.1,81.5-93.1c45.1,0,81.5,41.7,81.5,93.1
	S708.3,651.6,663.3,651.6z"/>
<path class="st0" d="M360.7,442.2c-57.8,0-104.7,52.1-104.7,116.4S302.9,675,360.7,675s104.7-52.1,104.7-116.4
	S418.6,442.2,360.7,442.2z M360.7,651.6c-44.9,0-81.5-41.7-81.5-93.1s36.4-93.1,81.5-93.1s81.5,41.7,81.5,93.1
	S405.7,651.6,360.7,651.6z"/>
<path class="st0" d="M360.7,453.8c-51.4,0-93.1,46.9-93.1,104.7s41.7,104.7,93.1,104.7s93.1-46.9,93.1-104.7
	S412.2,453.8,360.7,453.8z M360.7,651.6c-44.9,0-81.5-41.7-81.5-93.1s36.4-93.1,81.5-93.1s81.5,41.7,81.5,93.1
	S405.7,651.6,360.7,651.6z"/>
</svg>
