<?xml version="1.0" encoding="utf-8"?>
<!-- Generator: Adobe Illustrator 25.2.1, SVG Export Plug-In . SVG Version: 6.00 Build 0)  -->
<svg version="1.1" id="Capa_1" xmlns="http://www.w3.org/2000/svg" xmlns:xlink="http://www.w3.org/1999/xlink" x="0px" y="0px"
	 viewBox="0 0 1024 1024" style="enable-background:new 0 0 1024 1024;" xml:space="preserve">
<style type="text/css">
	.st0{fill:#BF0411;}
	.st1{opacity:5.000000e-02;fill-rule:evenodd;clip-rule:evenodd;enable-background:new    ;}
	.st2{opacity:7.000000e-02;fill-rule:evenodd;clip-rule:evenodd;enable-background:new    ;}
	.st3{fill-rule:evenodd;clip-rule:evenodd;fill:#FFFFFF;}
</style>
<g>
	<g transform="scale(5.33333,5.33333)">
		<path class="st0" d="M192,165.3c0,14.7-11.9,26.7-26.7,26.7H26.7C11.9,192,0,180.1,0,165.3V26.7C0,11.9,11.9,0,26.7,0h138.7
			C180.1,0,192,11.9,192,26.7V165.3z"/>
		<path class="st1" d="M106.8,165.3c-2.6,0-5.1-0.5-7.4-1.5c-4.7-2-8.3-5.7-10.2-10.4c-1.5-3.7-1.8-7.6-0.9-11.4L53.1,97.5
			c-0.7,0.1-1.3,0.1-2,0.1c-6.4,0-12.3-3.1-15.8-8.3c-2.8-4.2-3.9-9.3-2.9-14.2c1-5,3.8-9.3,8-12.1c3.2-2.1,6.9-3.3,10.7-3.3
			c4.9,0,9.5,1.9,13,5.2l52.9-17.1c1.8-8.9,9.5-15.4,18.6-15.4c10.5,0,19,8.5,19,19c0,8.5-5.7,16-13.8,18.3l-19,64.9
			c4.3,5.4,5.4,12.8,2.6,19.3C121.3,160.8,114.5,165.3,106.8,165.3L106.8,165.3z M102.7,127.6c0.1,0,0.1,0,0.2,0l17.6-59.9L69.2,84
			c-0.1,0.3-0.2,0.6-0.3,0.8L102.7,127.6z"/>
		<path class="st2" d="M106.8,162.7c-2.2,0-4.4-0.4-6.4-1.3c-4-1.7-7.1-4.9-8.7-8.9c-1.4-3.5-1.6-7.4-0.4-11L54.2,94.6
			c-1,0.2-2.1,0.3-3.1,0.4c-5.5,0-10.5-2.7-13.5-7.2c-2.4-3.6-3.3-8-2.5-12.2c0.8-4.3,3.3-8,6.9-10.4c2.7-1.8,5.9-2.8,9.2-2.8
			c4.7,0,9.2,2,12.3,5.5l56-18.1c0.9-8.5,7.9-14.8,16.2-14.8c9,0,16.3,7.3,16.3,16.3c0,7.9-5.7,14.6-13.2,16l-19.9,67.8
			c4.4,4.7,5.7,11.5,3.1,17.6C119.3,158.8,113.4,162.7,106.8,162.7L106.8,162.7z M101.7,130.7c1-0.4,2.1-0.6,3.2-0.8l19.5-66.3
			L67,81.9c-0.3,1.2-0.6,2.3-1.1,3.4L101.7,130.7z"/>
		<path class="st3" d="M149.2,51.3c0-7.5-6.1-13.7-13.7-13.7s-13.7,6.1-13.7,13.7c0,0,0,0,0,0.4L62.3,71c-4.2-6.2-12.7-7.9-19-3.6
			c-6.2,4.2-7.9,12.7-3.6,19c2.5,3.7,6.8,6,11.3,6c1.4,0,2.8-0.3,4.2-0.7L94.3,141c-3,6.9,0.3,15,7.2,17.9c6.9,3,15-0.3,17.9-7.2
			c2.3-5.5,0.8-11.9-3.7-15.7l20.8-71C143.7,64.4,149.2,58.5,149.2,51.3L149.2,51.3z M106.9,132.4c-2.1,0-4.2,0.5-6,1.5L62.7,85.5
			c1.1-1.7,1.7-3.7,1.9-5.7l60.8-19.4c0.6,0.7,1.3,1.4,2.1,1.9L106.9,132.4L106.9,132.4L106.9,132.4z"/>
	</g>
</g>
</svg>
