<?xml version="1.0" encoding="utf-8"?>
<!-- Generator: Adobe Illustrator 25.2.1, SVG Export Plug-In . SVG Version: 6.00 Build 0)  -->
<svg version="1.1" id="Capa_1" xmlns="http://www.w3.org/2000/svg" xmlns:xlink="http://www.w3.org/1999/xlink" x="0px" y="0px"
	 viewBox="0 0 1024 1024" style="enable-background:new 0 0 1024 1024;" xml:space="preserve">
<style type="text/css">
	.st0{fill-rule:evenodd;clip-rule:evenodd;fill:url(#SVGID_1_);}
	.st1{fill-rule:evenodd;clip-rule:evenodd;fill:url(#SVGID_2_);}
	.st2{opacity:5.000000e-02;fill:none;stroke:#1D1D1B;stroke-width:42.6667;stroke-miterlimit:85.3333;enable-background:new    ;}
	.st3{opacity:7.000000e-02;fill:none;stroke:#000000;stroke-width:21.3333;stroke-miterlimit:85.3333;enable-background:new    ;}
	.st4{fill-rule:evenodd;clip-rule:evenodd;fill:url(#SVGID_3_);}
</style>
<linearGradient id="SVGID_1_" gradientUnits="userSpaceOnUse" x1="219.4359" y1="903.0554" x2="218.9452" y2="909.4269" gradientTransform="matrix(21.3333 0 0 -21.3333 -4188.667 19486.668)">
	<stop  offset="0" style="stop-color:#E8E8E8"/>
	<stop  offset="0.464" style="stop-color:#EDEDED"/>
	<stop  offset="1" style="stop-color:#FAFAFB"/>
</linearGradient>
<path class="st0" d="M190.2,179.5c31.8,25.9,43.8,23.9,103.6,19.9l563.9-33.9c12,0,2-11.9-2-13.9L762.1,84
	c-17.9-13.9-41.9-29.9-87.7-25.9l-546,39.8c-19.9,2-23.9,11.9-16,19.9L190.2,179.5z"/>
<linearGradient id="SVGID_2_" gradientUnits="userSpaceOnUse" x1="224.5583" y1="865.8177" x2="222.7201" y2="901.3539" gradientTransform="matrix(21.3333 0 0 -21.3333 -4188.667 19486.668)">
	<stop  offset="0" style="stop-color:#E8E8E8"/>
	<stop  offset="0.464" style="stop-color:#EDEDED"/>
	<stop  offset="1" style="stop-color:#FAFAFB"/>
</linearGradient>
<path class="st1" d="M224.1,310.9v593.3c0,31.9,15.9,43.8,51.8,41.9l619.7-35.9c35.9-2,39.9-23.9,39.9-49.8V271.1
	c0-25.9-10-39.8-31.9-37.8L256,271.1C232.1,273.1,224.1,285.1,224.1,310.9L224.1,310.9z"/>
<path class="st2" d="M190.2,179.5c31.8,25.9,43.8,23.9,103.6,19.9l563.9-33.9c12,0,2-11.9-2-13.9L762.1,84
	c-17.9-13.9-41.9-29.9-87.7-25.9l-546,39.8c-19.9,2-23.9,11.9-16,19.9L190.2,179.5z"/>
<path class="st3" d="M190.2,179.5c31.8,25.9,43.8,23.9,103.6,19.9l563.9-33.9c12,0,2-11.9-2-13.9L762.1,84
	c-17.9-13.9-41.9-29.9-87.7-25.9l-546,39.8c-19.9,2-23.9,11.9-16,19.9L190.2,179.5z"/>
<path class="st2" d="M224.1,310.9v593.3c0,31.9,15.9,43.8,51.8,41.9l619.7-35.9c35.9-2,39.9-23.9,39.9-49.8V271.1
	c0-25.9-10-39.8-31.9-37.8L256,271.1C232.1,273.1,224.1,285.1,224.1,310.9L224.1,310.9z"/>
<path class="st3" d="M224.1,310.9v593.3c0,31.9,15.9,43.8,51.8,41.9l619.7-35.9c35.9-2,39.9-23.9,39.9-49.8V271.1
	c0-25.9-10-39.8-31.9-37.8L256,271.1C232.1,273.1,224.1,285.1,224.1,310.9L224.1,310.9z"/>
<linearGradient id="SVGID_3_" gradientUnits="userSpaceOnUse" x1="217.4964" y1="912.7518" x2="223.5007" y2="867.2913" gradientTransform="matrix(21.3333 0 0 -21.3333 -4188.667 19486.668)">
	<stop  offset="0" style="stop-color:#636363"/>
	<stop  offset="1" style="stop-color:#444444"/>
</linearGradient>
<path class="st4" d="M190.2,179.5c31.8,25.9,43.8,23.9,103.6,19.9l563.9-33.9c12,0,2-11.9-2-13.9L762.1,84
	c-17.9-13.9-41.9-29.9-87.7-25.9l-546,39.8c-19.9,2-23.9,11.9-16,19.9L190.2,179.5z M224.1,310.9v593.3c0,31.9,15.9,43.8,51.8,41.9
	l619.7-35.9c35.9-2,39.9-23.9,39.9-49.8V271.1c0-25.9-10-39.8-31.9-37.8L256,271.1C232.1,273.1,224.1,285.1,224.1,310.9L224.1,310.9
	z M835.8,342.8c4,17.9,0,35.9-18,37.9l-29.9,5.9v438c-25.9,13.9-49.8,21.9-69.7,21.9c-31.9,0-39.9-10-63.8-39.8L459.2,500.1v296.6
	l61.8,13.9c0,0,0,35.8-49.9,35.8l-137.4,8c-4-8,0-27.9,13.9-31.8l35.9-10V420.4l-49.8-4c-4-17.9,5.9-43.8,33.9-45.8l147.5-10
	l203.2,310.6V396.5l-51.8-5.9c-4-21.9,11.9-37.8,31.9-39.8L835.8,342.8z M82.6,44.2L650.5,2.3c69.7-6,87.7-2,131.5,29.9l181.3,127.4
	c29.9,21.9,39.9,27.9,39.9,51.8v698.8c0,43.8-16,69.7-71.7,73.6l-659.5,39.8c-41.9,2-61.8-4-83.7-31.8L54.7,818.6
	c-23.9-31.9-33.9-55.7-33.9-83.6V113.8C20.8,78,36.8,48.1,82.6,44.2z"/>
</svg>
