<?xml version="1.0" encoding="utf-8"?>
<!-- Generator: Adobe Illustrator 25.2.1, SVG Export Plug-In . SVG Version: 6.00 Build 0)  -->
<svg version="1.1" id="Capa_1" xmlns="http://www.w3.org/2000/svg" xmlns:xlink="http://www.w3.org/1999/xlink" x="0px" y="0px"
	 viewBox="0 0 1024 1024" style="enable-background:new 0 0 1024 1024;" xml:space="preserve">
<style type="text/css">
	.st0{fill:#CCCCCC;}
	.st1{opacity:5.000000e-02;enable-background:new    ;}
	.st2{opacity:7.000000e-02;enable-background:new    ;}
	.st3{fill:url(#SVGID_1_);}
</style>
<circle class="st0" cx="512" cy="512" r="480"/>
<path class="st1" d="M654.7,48.4l-12.5-3.7C600.8,33.1,557.1,26.9,512,26.9C244.5,26.9,26.9,244.5,26.9,512S244.5,997.1,512,997.1
	S997.1,779.5,997.1,512C997.1,294.2,852.8,109.5,654.7,48.4z M380.9,834.3c105.4-59.5,142.8-193.7,83.3-299.1
	c-32.5-57.6-88.5-97.1-153.7-108.4c-16.6-2.9-30.9-15.5-36.5-32.1c-8.4-25.3-12.6-51.8-12.6-78.7c0-46.7,13-91.2,36.1-129.4
	c-4.6,22.5-5.7,46.1-2.9,70.1c11.9,102.2,98.5,185,201.3,192.6c70.2,5.3,136.9-22.8,182.3-75c10.8-12.4,28.5-18.4,46.1-15.1
	c29.6,5.6,57.6,16.5,83.3,32.2c44.8,27.4,78.6,67.8,99.1,113.8c-12.3-13.2-26.3-25-41.8-35c-35.4-22.7-76.3-34.7-118.2-34.7
	c-75.3,0-144.5,37.8-185.1,101.2c-37.3,58.3-44.9,129.1-20.9,194.2c6.2,16.7,1.9,36.1-11,49.4c-15.2,15.7-32.4,29.3-51.1,40.5
	c-45.3,27-99,39.2-151.1,35.1C346.1,851,364.1,843.8,380.9,834.3z"/>
<path class="st2" d="M512,26.9C244.5,26.9,26.9,244.5,26.9,512S244.5,997.1,512,997.1S997.1,779.5,997.1,512S779.5,26.9,512,26.9z
	 M573,544c-36.7,57.4-42.6,129.2-15.7,192c5.8,13.6,4,28.6-4.8,39.2c-19,22.8-41.6,42-66.9,57.2c-74.7,44.6-171.3,48.5-247.8,14.6
	c46.4,7.5,95.6-1.2,136.7-24.4c99-55.8,134-181.8,78.2-280.7c-32-56.6-89.5-95.2-154.1-103.2c-14-1.8-25.8-10.3-30.7-22.4
	c-13.1-31.9-19.7-65.6-19.7-100.3c0-80.6,36.6-154.8,95.9-203.9c-28.3,40.4-42,90.8-35.9,143c11.2,95.9,92.4,173.6,188.9,180.8
	c69.5,5.3,134.6-23.9,177.3-77.9c8.5-10.8,21.4-16.4,34.3-14.8c38,4.5,73.7,16.9,106.1,36.8c74.3,45.5,120.1,124.9,126.7,208.5
	c-15.1-43.1-44-81.4-83.8-106.8C824.3,460.3,786,449,746.7,449C676,449,611,484.5,573,544z"/>
<linearGradient id="SVGID_1_" gradientUnits="userSpaceOnUse" x1="208.4473" y1="906.5103" x2="230.0486" y2="875.5099" gradientTransform="matrix(21.3333 0 0 -21.3333 -4188.667 19486.668)">
	<stop  offset="0" style="stop-color:#4C4C4C"/>
	<stop  offset="1" style="stop-color:#343434"/>
</linearGradient>
<path class="st3" d="M512,0C229.6,0,0,229.6,0,512s229.6,512,512,512s512-229.6,512-512S794.4,0,512,0z M929.7,720.7
	c28.2-82.8-2.9-178.8-79.4-227.7c-89.6-57.3-208.7-31.2-266,58.4l0,0c-35.7,55.8-38.9,122.9-14.7,179.5c7.6,17.7,5.5,38.3-6.9,53.1
	c-19.4,23.3-42.9,43.7-70.4,60.1c-120.2,71.7-275.1,43.4-361.2-61.9c-4.1-5.8-8.2-11.7-12-17.7c58.3,72.9,164.8,93.8,248.6,46.5
	c92.6-52.3,125.4-169.7,73.1-262.4l0,0c-31.2-55.2-85.6-89.2-144-96.5c-18.3-2.3-34.5-13.6-41.5-30.6
	c-13.4-32.5-20.7-68.1-20.7-105.4c0-122,78.7-225.3,188.1-262.7c8-1.6,16.2-2.6,24.3-3.7c-80.7,29.3-136.4,110.9-125.5,204
	c10.5,90.1,86.1,162.1,176.5,168.9c67.2,5,127.6-24.6,165.7-72.8c11.2-14.1,28.6-22,46.5-19.9c38.4,4.6,76.4,17.1,111.6,38.6
	c112.6,68.9,159.7,206.9,120,327.5C938,704.4,933.8,712.5,929.7,720.7z"/>
</svg>
