<?xml version="1.0" encoding="utf-8"?>
<!-- Generator: Adobe Illustrator 25.2.1, SVG Export Plug-In . SVG Version: 6.00 Build 0)  -->
<svg version="1.1" id="Capa_1" xmlns="http://www.w3.org/2000/svg" xmlns:xlink="http://www.w3.org/1999/xlink" x="0px" y="0px"
	 viewBox="0 0 1024 1024" style="enable-background:new 0 0 1024 1024;" xml:space="preserve">
<style type="text/css">
	.st0{fill:url(#SVGID_1_);}
	.st1{fill:#FFFFFF;}
	.st2{opacity:7.000000e-02;enable-background:new    ;}
	.st3{opacity:5.000000e-02;enable-background:new    ;}
</style>
<linearGradient id="SVGID_1_" gradientUnits="userSpaceOnUse" x1="220.3438" y1="865.4375" x2="220.3438" y2="913.4375" gradientTransform="matrix(21.3333 0 0 -21.3333 -4188.667 19486.668)">
	<stop  offset="0" style="stop-color:#0176D0"/>
	<stop  offset="1" style="stop-color:#16538C"/>
</linearGradient>
<path class="st0" d="M1024,512c0,282.6-229.4,512-512,512c-214.8,0-398.6-132.1-474.4-319.5c-2.3-5.1-4.1-10.2-6.1-15.4
	c-1.8-4.9-3.6-10-5.1-15.1C9.2,623.1,0,568.6,0,512c0-4.4,0-9,0.5-13.3c-0.3-4.4,0-9,0.3-13.3C14.6,215,238.1,0,512,0
	C794.6,0,1024,229.1,1024,512z"/>
<circle class="st1" cx="627.2" cy="371.2" r="89.6"/>
<path class="st2" d="M627.2,268.8c-56.6,0-102.4,45.8-102.4,102.4s45.8,102.4,102.4,102.4s102.4-45.8,102.4-102.4
	S683.8,268.8,627.2,268.8z M627.2,460.8c-49.4,0-89.6-40.2-89.6-89.6s40.2-89.6,89.6-89.6s89.6,40.2,89.6,89.6
	S676.6,460.8,627.2,460.8z"/>
<path class="st1" d="M627.2,153.6c-120.1,0-217.6,97.5-217.6,217.6c0,4.6,0.5,9,0.8,13.3L332.8,512c-53,0-100.4,23-133.1,59.4L0,512
	c0,56.6,9.2,111.1,26.4,162l129,41.2c11.8,87.6,86.5,155.1,177.4,155.1c99.1,0,179.2-80.1,179.2-179.2c0-9.5-1-18.7-2.3-27.6
	l129.5-75.3c114.4-6.4,205.6-101.1,205.6-217.1C844.8,251.1,747.3,153.6,627.2,153.6z M332.8,819.2c-55.8,0-102.9-36.1-120.3-85.8
	l96,30.5l0.3-0.3c0,0.3,0.3,0.3,0.5,0.3c3.6,1,6.9,2,10.5,2.8c4.4,0.8,8.7,1.3,13.1,1.3c42.5,0,76.8-34.3,76.8-76.8
	c0-33.3-21.8-61.7-51.7-72.2c-0.3-0.3-0.8-0.8-0.8-0.8L257,588.5c21.2-15.6,47.4-25.3,75.8-25.3c70.7,0,128,57.3,128,128
	S403.5,819.2,332.8,819.2z M627.2,512c-77.8,0-140.8-63-140.8-140.8s63-140.8,140.8-140.8S768,293.4,768,371.2S705,512,627.2,512z"
	/>
<path class="st3" d="M752.6,345.3c-1.8-8.2-4.4-16.1-7.4-23.8c-1.5-3.8-3.6-7.7-5.4-11.3c-12-21.8-30-39.7-51.7-51.7
	c-3.6-1.8-7.4-3.8-11.3-5.4c-7.7-3.1-15.6-5.6-23.8-7.4c-8.4-1.5-17.2-2.6-25.9-2.6s-17.4,1-25.9,2.6c-8.2,1.8-16.1,4.4-23.8,7.4
	c-3.8,1.5-7.7,3.6-11.3,5.4c-21.8,12-39.7,30-51.7,51.7c-1.8,3.6-3.8,7.4-5.4,11.3c-3.1,7.7-5.6,15.6-7.4,23.8
	c-1.5,8.4-2.6,17.2-2.6,25.9s1,17.4,2.6,25.9c1.8,8.2,4.4,16.1,7.4,23.8c1.5,3.8,3.6,7.7,5.4,11.3c12,21.8,30,39.7,51.7,51.7
	c3.6,1.8,7.4,3.8,11.3,5.4c7.7,3.1,15.6,5.6,23.8,7.4c8.4,1.5,17.2,2.6,25.9,2.6s17.4-1,25.9-2.6c8.2-1.8,16.1-4.4,23.8-7.4
	c3.8-1.5,7.7-3.6,11.3-5.4c21.8-12,39.7-30,51.7-51.7c1.8-3.6,3.8-7.4,5.4-11.3c3.1-7.7,5.6-15.6,7.4-23.8
	c1.5-8.4,2.6-17.2,2.6-25.9S754.2,353.8,752.6,345.3z M627.2,473.6c-56.6,0-102.4-45.8-102.4-102.4s45.8-102.4,102.4-102.4
	s102.4,45.8,102.4,102.4S683.8,473.6,627.2,473.6z M332.8,576c-15.1,0-29.7,3.1-43.5,8.7l71.4,21.2l3.1,1.5l0.3,0.3
	c35.1,13.1,58.4,46.3,58.4,83.5c0,49.4-40.2,89.6-89.6,89.6c-4.9,0-10-0.5-15.1-1.5h-0.8l-0.3,0.8l-12-3.8l-67.3-21.5
	c21,31.7,56.6,51.7,95.5,51.7c63.5,0,115.2-51.7,115.2-115.2C448,627.7,396.3,576,332.8,576z M332.8,576c-15.1,0-29.7,3.1-43.5,8.7
	l71.4,21.2l3.1,1.5l0.3,0.3c35.1,13.1,58.4,46.3,58.4,83.5c0,49.4-40.2,89.6-89.6,89.6c-4.9,0-10-0.5-15.1-1.5h-0.8l-0.3,0.8
	l-12-3.8l-67.3-21.5c21,31.7,56.6,51.7,95.5,51.7c63.5,0,115.2-51.7,115.2-115.2C448,627.7,396.3,576,332.8,576z M627.2,128
	C493.1,128,384,237.1,384,371.2c0,2.3,0,4.6,0.3,6.9l-66,108.8c-47.1,3.3-91.6,23-126,55.6l-184.8-55l-6.7-2
	c-0.3,4.4-0.5,9-0.3,13.3l3.1,1l192.3,57.3c34.3-35.1,80.9-55.8,129.8-57.6l71.7-118c-0.3-3.3-0.5-6.9-0.5-10.2
	c0-127,103.4-230.4,230.4-230.4s230.4,103.4,230.4,230.4c0,121.1-94,221.2-214.5,229.6l-119.6,69.6c0.8,7.2,1.3,14.1,1.3,20.7
	c0,106-86,192-192,192c-92.9,0-172.8-67.6-188.9-158.2L31.5,689.2c2,5.1,3.8,10.2,6.1,15.4l95.2,30.5c20.2,92.9,103.4,161,199.9,161
	c112.9,0,204.8-91.9,204.8-204.8c0-4.6-0.3-9.2-0.5-13.8l109.8-64c126-10.2,223.5-115.5,223.5-242.2
	C870.4,237.1,761.3,128,627.2,128z M332.8,780.8c-4.9,0-10-0.5-15.1-1.5h-0.8l-0.3,0.8l-12-3.8l-67.3-21.5
	c21,31.7,56.6,51.7,95.5,51.7c63.5,0,115.2-51.7,115.2-115.2S396.3,576,332.8,576c-15.1,0-29.7,3.1-43.5,8.7l71.4,21.2l3.1,1.5
	l0.3,0.3c35.1,13.1,58.4,46.3,58.4,83.5C422.4,740.6,382.2,780.8,332.8,780.8z M332.8,576c-15.1,0-29.7,3.1-43.5,8.7l71.4,21.2
	l3.1,1.5l0.3,0.3c35.1,13.1,58.4,46.3,58.4,83.5c0,49.4-40.2,89.6-89.6,89.6c-4.9,0-10-0.5-15.1-1.5h-0.8l-0.3,0.8l-12-3.8
	l-67.3-21.5c21,31.7,56.6,51.7,95.5,51.7c63.5,0,115.2-51.7,115.2-115.2C448,627.7,396.3,576,332.8,576z M332.8,576
	c-15.1,0-29.7,3.1-43.5,8.7l71.4,21.2l3.1,1.5l0.3,0.3c35.1,13.1,58.4,46.3,58.4,83.5c0,49.4-40.2,89.6-89.6,89.6
	c-4.9,0-10-0.5-15.1-1.5h-0.8l-0.3,0.8l-12-3.8l-67.3-21.5c21,31.7,56.6,51.7,95.5,51.7c63.5,0,115.2-51.7,115.2-115.2
	C448,627.7,396.3,576,332.8,576z M332.8,576c-15.1,0-29.7,3.1-43.5,8.7l71.4,21.2l3.1,1.5l0.3,0.3c35.1,13.1,58.4,46.3,58.4,83.5
	c0,49.4-40.2,89.6-89.6,89.6c-4.9,0-10-0.5-15.1-1.5h-0.8l-0.3,0.8l-12-3.8l-67.3-21.5c21,31.7,56.6,51.7,95.5,51.7
	c63.5,0,115.2-51.7,115.2-115.2C448,627.7,396.3,576,332.8,576z M332.8,576c-15.1,0-29.7,3.1-43.5,8.7l71.4,21.2l3.1,1.5l0.3,0.3
	c35.1,13.1,58.4,46.3,58.4,83.5c0,49.4-40.2,89.6-89.6,89.6c-4.9,0-10-0.5-15.1-1.5h-0.8l-0.3,0.8l-12-3.8l-67.3-21.5
	c21,31.7,56.6,51.7,95.5,51.7c63.5,0,115.2-51.7,115.2-115.2C448,627.7,396.3,576,332.8,576z"/>
<path class="st2" d="M627.2,140.8c-127,0-230.4,103.4-230.4,230.4c0,3.3,0.3,6.9,0.5,10.2l-71.7,118c-48.9,1.8-95.5,22.5-129.8,57.6
	L3.6,499.7l-3.1-1C0,503,0,507.6,0,512l199.7,59.4C232.4,535,279.8,512,332.8,512l77.6-127.5c-0.3-4.4-0.8-8.7-0.8-13.3
	c0-120.1,97.5-217.6,217.6-217.6s217.6,97.5,217.6,217.6c0,116-91.1,210.7-205.6,217.1l-129.5,75.3c1.3,9,2.3,18.2,2.3,27.6
	c0,99.1-80.1,179.2-179.2,179.2c-90.9,0-165.6-67.6-177.4-155.1L26.4,674c1.5,5.1,3.3,10.2,5.1,15.1L143.9,725
	c16.1,90.6,96,158.2,188.9,158.2c106,0,192-86,192-192c0-6.7-0.5-13.6-1.3-20.7l119.6-69.6c120.6-8.4,214.5-108.5,214.5-229.6
	C857.6,244.2,754.2,140.8,627.2,140.8z M627.2,512C705,512,768,449,768,371.2s-63-140.8-140.8-140.8s-140.8,63-140.8,140.8
	S549.4,512,627.2,512z M509.2,420.9c-3.3-7.7-5.6-15.6-7.4-23.8c-1.5-8.4-2.6-17.2-2.6-25.9s1-17.4,2.6-25.9
	c1.8-8.2,4.1-16.1,7.4-23.8c1.5-3.8,3.6-7.7,5.4-11.3c12-21.8,30-39.7,51.7-51.7c3.6-1.8,7.4-3.8,11.3-5.4
	c7.7-3.3,15.6-5.6,23.8-7.4c8.4-1.5,17.2-2.6,25.9-2.6s17.4,1,25.9,2.6c8.2,1.8,16.1,4.1,23.8,7.4c3.8,1.5,7.7,3.6,11.3,5.4
	c21.8,12,39.7,30,51.7,51.7c1.8,3.6,3.8,7.4,5.4,11.3c3.3,7.7,5.6,15.6,7.4,23.8c1.5,8.4,2.6,17.2,2.6,25.9s-1,17.4-2.6,25.9
	c-1.8,8.2-4.1,16.1-7.4,23.8c-1.5,3.8-3.6,7.7-5.4,11.3c-12,21.8-30,39.7-51.7,51.7c-3.6,1.8-7.4,3.8-11.3,5.4
	c-7.7,3.3-15.6,5.6-23.8,7.4c-8.4,1.5-17.2,2.6-25.9,2.6s-17.4-1-25.9-2.6c-8.2-1.8-16.1-4.1-23.8-7.4c-3.8-1.5-7.7-3.6-11.3-5.4
	c-21.8-12-39.7-30-51.7-51.7C512.8,428.5,510.7,424.7,509.2,420.9z M332.8,768c-4.4,0-8.7-0.5-13.1-1.3c-3.6-0.8-6.9-1.8-10.5-2.8
	c-0.3,0-0.5,0-0.5-0.3l-0.3,0.3l-96-30.5c17.4,49.7,64.5,85.8,120.3,85.8c70.7,0,128-57.3,128-128s-57.3-128-128-128
	c-28.4,0-54.5,9.7-75.8,25.3l100.1,29.7c0,0,0.5,0.5,0.8,0.8c30,10.5,51.7,38.9,51.7,72.2C409.6,733.7,375.3,768,332.8,768z
	 M422.4,691.2c0-37.1-23.3-70.4-58.4-83.5l-0.3-0.3l-3.1-1.5l-71.4-21.2c13.8-5.6,28.4-8.7,43.5-8.7c63.5,0,115.2,51.7,115.2,115.2
	s-51.7,115.2-115.2,115.2c-38.9,0-74.5-20-95.5-51.7l67.3,21.5l12,3.8l0.3-0.8h0.8c5.1,1,10.2,1.5,15.1,1.5
	C382.2,780.8,422.4,740.6,422.4,691.2z M332.8,563.2c-28.4,0-54.5,9.7-75.8,25.3l100.1,29.7c0,0,0.5,0.5,0.8,0.8
	c30,10.5,51.7,38.9,51.7,72.2c0,42.5-34.3,76.8-76.8,76.8c-4.4,0-8.7-0.5-13.1-1.3c-3.6-0.8-6.9-1.8-10.5-2.8c-0.3,0-0.5,0-0.5-0.3
	l-0.3,0.3l-96-30.5c17.4,49.7,64.5,85.8,120.3,85.8c70.7,0,128-57.3,128-128S403.5,563.2,332.8,563.2z M332.8,806.4
	c-38.9,0-74.5-20-95.5-51.7l67.3,21.5l12,3.8l0.3-0.8h0.8c5.1,1,10.2,1.5,15.1,1.5c49.4,0,89.6-40.2,89.6-89.6
	c0-37.1-23.3-70.4-58.4-83.5l-0.3-0.3l-3.1-1.5l-71.4-21.2c13.8-5.6,28.4-8.7,43.5-8.7c63.5,0,115.2,51.7,115.2,115.2
	C448,754.7,396.3,806.4,332.8,806.4z M627.2,230.4c-77.8,0-140.8,63-140.8,140.8S549.4,512,627.2,512S768,449,768,371.2
	S705,230.4,627.2,230.4z M745.2,420.9c-1.5,3.8-3.6,7.7-5.4,11.3c-12,21.8-30,39.7-51.7,51.7c-3.6,1.8-7.4,3.8-11.3,5.4
	c-7.7,3.3-15.6,5.6-23.8,7.4c-8.4,1.5-17.2,2.6-25.9,2.6s-17.4-1-25.9-2.6c-8.2-1.8-16.1-4.1-23.8-7.4c-3.8-1.5-7.7-3.6-11.3-5.4
	c-21.8-12-39.7-30-51.7-51.7c-1.8-3.6-3.8-7.4-5.4-11.3c-3.3-7.7-5.6-15.6-7.4-23.8c-1.5-8.4-2.6-17.2-2.6-25.9s1-17.4,2.6-25.9
	c1.8-8.2,4.1-16.1,7.4-23.8c1.5-3.8,3.6-7.7,5.4-11.3c12-21.8,30-39.7,51.7-51.7c3.6-1.8,7.4-3.8,11.3-5.4
	c7.7-3.3,15.6-5.6,23.8-7.4c8.4-1.5,17.2-2.6,25.9-2.6s17.4,1,25.9,2.6c8.2,1.8,16.1,4.1,23.8,7.4c3.8,1.5,7.7,3.6,11.3,5.4
	c21.8,12,39.7,30,51.7,51.7c1.8,3.6,3.8,7.4,5.4,11.3c3.3,7.7,5.6,15.6,7.4,23.8c1.5,8.4,2.6,17.2,2.6,25.9s-1,17.4-2.6,25.9
	C750.8,405.2,748.5,413.2,745.2,420.9z M627.2,230.4c-77.8,0-140.8,63-140.8,140.8S549.4,512,627.2,512S768,449,768,371.2
	S705,230.4,627.2,230.4z M745.2,420.9c-1.5,3.8-3.6,7.7-5.4,11.3c-12,21.8-30,39.7-51.7,51.7c-3.6,1.8-7.4,3.8-11.3,5.4
	c-7.7,3.3-15.6,5.6-23.8,7.4c-8.4,1.5-17.2,2.6-25.9,2.6s-17.4-1-25.9-2.6c-8.2-1.8-16.1-4.1-23.8-7.4c-3.8-1.5-7.7-3.6-11.3-5.4
	c-21.8-12-39.7-30-51.7-51.7c-1.8-3.6-3.8-7.4-5.4-11.3c-3.3-7.7-5.6-15.6-7.4-23.8c-1.5-8.4-2.6-17.2-2.6-25.9s1-17.4,2.6-25.9
	c1.8-8.2,4.1-16.1,7.4-23.8c1.5-3.8,3.6-7.7,5.4-11.3c12-21.8,30-39.7,51.7-51.7c3.6-1.8,7.4-3.8,11.3-5.4
	c7.7-3.3,15.6-5.6,23.8-7.4c8.4-1.5,17.2-2.6,25.9-2.6s17.4,1,25.9,2.6c8.2,1.8,16.1,4.1,23.8,7.4c3.8,1.5,7.7,3.6,11.3,5.4
	c21.8,12,39.7,30,51.7,51.7c1.8,3.6,3.8,7.4,5.4,11.3c3.3,7.7,5.6,15.6,7.4,23.8c1.5,8.4,2.6,17.2,2.6,25.9s-1,17.4-2.6,25.9
	C750.8,405.2,748.5,413.2,745.2,420.9z M332.8,563.2c-28.4,0-54.5,9.7-75.8,25.3l100.1,29.7c0,0,0.5,0.5,0.8,0.8
	c30,10.5,51.7,38.9,51.7,72.2c0,42.5-34.3,76.8-76.8,76.8c-4.4,0-8.7-0.5-13.1-1.3c-3.6-0.8-6.9-1.8-10.5-2.8c-0.3,0-0.5,0-0.5-0.3
	l-0.3,0.3l-96-30.5c17.4,49.7,64.5,85.8,120.3,85.8c70.7,0,128-57.3,128-128S403.5,563.2,332.8,563.2z M332.8,806.4
	c-38.9,0-74.5-20-95.5-51.7l67.3,21.5l12,3.8l0.3-0.8h0.8c5.1,1,10.2,1.5,15.1,1.5c49.4,0,89.6-40.2,89.6-89.6
	c0-37.1-23.3-70.4-58.4-83.5l-0.3-0.3l-3.1-1.5l-71.4-21.2c13.8-5.6,28.4-8.7,43.5-8.7c63.5,0,115.2,51.7,115.2,115.2
	C448,754.7,396.3,806.4,332.8,806.4z"/>
<path class="st2" d="M627.2,230.4c-77.8,0-140.8,63-140.8,140.8S549.4,512,627.2,512S768,449,768,371.2S705,230.4,627.2,230.4z
	 M745.2,420.9c-1.5,3.8-3.6,7.7-5.4,11.3c-12,21.8-30,39.7-51.7,51.7c-3.6,1.8-7.4,3.8-11.3,5.4c-7.7,3.3-15.6,5.6-23.8,7.4
	c-8.4,1.5-17.2,2.6-25.9,2.6s-17.4-1-25.9-2.6c-8.2-1.8-16.1-4.1-23.8-7.4c-3.8-1.5-7.7-3.6-11.3-5.4c-21.8-12-39.7-30-51.7-51.7
	c-1.8-3.6-3.8-7.4-5.4-11.3c-3.3-7.7-5.6-15.6-7.4-23.8c-1.5-8.4-2.6-17.2-2.6-25.9s1-17.4,2.6-25.9c1.8-8.2,4.1-16.1,7.4-23.8
	c1.5-3.8,3.6-7.7,5.4-11.3c12-21.8,30-39.7,51.7-51.7c3.6-1.8,7.4-3.8,11.3-5.4c7.7-3.3,15.6-5.6,23.8-7.4
	c8.4-1.5,17.2-2.6,25.9-2.6s17.4,1,25.9,2.6c8.2,1.8,16.1,4.1,23.8,7.4c3.8,1.5,7.7,3.6,11.3,5.4c21.8,12,39.7,30,51.7,51.7
	c1.8,3.6,3.8,7.4,5.4,11.3c3.3,7.7,5.6,15.6,7.4,23.8c1.5,8.4,2.6,17.2,2.6,25.9s-1,17.4-2.6,25.9
	C750.8,405.2,748.5,413.2,745.2,420.9z M627.2,230.4c-77.8,0-140.8,63-140.8,140.8S549.4,512,627.2,512S768,449,768,371.2
	S705,230.4,627.2,230.4z M745.2,420.9c-1.5,3.8-3.6,7.7-5.4,11.3c-12,21.8-30,39.7-51.7,51.7c-3.6,1.8-7.4,3.8-11.3,5.4
	c-7.7,3.3-15.6,5.6-23.8,7.4c-8.4,1.5-17.2,2.6-25.9,2.6s-17.4-1-25.9-2.6c-8.2-1.8-16.1-4.1-23.8-7.4c-3.8-1.5-7.7-3.6-11.3-5.4
	c-21.8-12-39.7-30-51.7-51.7c-1.8-3.6-3.8-7.4-5.4-11.3c-3.3-7.7-5.6-15.6-7.4-23.8c-1.5-8.4-2.6-17.2-2.6-25.9s1-17.4,2.6-25.9
	c1.8-8.2,4.1-16.1,7.4-23.8c1.5-3.8,3.6-7.7,5.4-11.3c12-21.8,30-39.7,51.7-51.7c3.6-1.8,7.4-3.8,11.3-5.4
	c7.7-3.3,15.6-5.6,23.8-7.4c8.4-1.5,17.2-2.6,25.9-2.6s17.4,1,25.9,2.6c8.2,1.8,16.1,4.1,23.8,7.4c3.8,1.5,7.7,3.6,11.3,5.4
	c21.8,12,39.7,30,51.7,51.7c1.8,3.6,3.8,7.4,5.4,11.3c3.3,7.7,5.6,15.6,7.4,23.8c1.5,8.4,2.6,17.2,2.6,25.9s-1,17.4-2.6,25.9
	C750.8,405.2,748.5,413.2,745.2,420.9z M627.2,230.4c-77.8,0-140.8,63-140.8,140.8S549.4,512,627.2,512S768,449,768,371.2
	S705,230.4,627.2,230.4z M745.2,420.9c-1.5,3.8-3.6,7.7-5.4,11.3c-12,21.8-30,39.7-51.7,51.7c-3.6,1.8-7.4,3.8-11.3,5.4
	c-7.7,3.3-15.6,5.6-23.8,7.4c-8.4,1.5-17.2,2.6-25.9,2.6s-17.4-1-25.9-2.6c-8.2-1.8-16.1-4.1-23.8-7.4c-3.8-1.5-7.7-3.6-11.3-5.4
	c-21.8-12-39.7-30-51.7-51.7c-1.8-3.6-3.8-7.4-5.4-11.3c-3.3-7.7-5.6-15.6-7.4-23.8c-1.5-8.4-2.6-17.2-2.6-25.9s1-17.4,2.6-25.9
	c1.8-8.2,4.1-16.1,7.4-23.8c1.5-3.8,3.6-7.7,5.4-11.3c12-21.8,30-39.7,51.7-51.7c3.6-1.8,7.4-3.8,11.3-5.4
	c7.7-3.3,15.6-5.6,23.8-7.4c8.4-1.5,17.2-2.6,25.9-2.6s17.4,1,25.9,2.6c8.2,1.8,16.1,4.1,23.8,7.4c3.8,1.5,7.7,3.6,11.3,5.4
	c21.8,12,39.7,30,51.7,51.7c1.8,3.6,3.8,7.4,5.4,11.3c3.3,7.7,5.6,15.6,7.4,23.8c1.5,8.4,2.6,17.2,2.6,25.9s-1,17.4-2.6,25.9
	C750.8,405.2,748.5,413.2,745.2,420.9z"/>
</svg>
