<?xml version="1.0" encoding="utf-8"?>
<!-- Generator: Adobe Illustrator 25.2.1, SVG Export Plug-In . SVG Version: 6.00 Build 0)  -->
<svg version="1.1" id="Capa_1" xmlns="http://www.w3.org/2000/svg" xmlns:xlink="http://www.w3.org/1999/xlink" x="0px" y="0px"
	 viewBox="0 0 1024 1024" style="enable-background:new 0 0 1024 1024;" xml:space="preserve">
<style type="text/css">
	.st0{fill:url(#SVGID_1_);}
	.st1{opacity:5.000000e-02;enable-background:new    ;}
	.st2{opacity:7.000000e-02;enable-background:new    ;}
	.st3{fill:#FFFFFF;}
</style>
<linearGradient id="SVGID_1_" gradientUnits="userSpaceOnUse" x1="220.3438" y1="913.4375" x2="220.3438" y2="865.4375" gradientTransform="matrix(21.3333 0 0 -21.3333 -4188.667 19486.668)">
	<stop  offset="0" style="stop-color:#33BEF0"/>
	<stop  offset="1" style="stop-color:#0A85D9"/>
</linearGradient>
<path class="st0" d="M910.2,1024H113.8C50.9,1024,0,973.1,0,910.2V113.8C0,50.9,50.9,0,113.8,0h796.4C973.1,0,1024,50.9,1024,113.8
	v796.4C1024,973.1,973.1,1024,910.2,1024z"/>
<path class="st1" d="M113.8,938.7c-15.7,0-28.4-12.8-28.4-28.4V113.8c0-15.7,12.7-28.4,28.4-28.4h796.4c15.7,0,28.4,12.8,28.4,28.4
	v796.4c0,15.7-12.7,28.4-28.4,28.4H113.8z M824.9,824.9V654.2h-96.4c-12.2,0-23.1-7.8-26.9-19.4l-47.7-141.8l-58,170.3
	c-4,11.5-14.8,19.3-26.9,19.3c-12.1,0-23-7.7-26.9-19.3l-58-170.1L379.4,804.6c-3.9,11.6-14.7,19.4-26.9,19.4
	c-12.2,0-23.1-7.7-27-19.3L226.2,512h-27.1v312.9H824.9z M824.9,540.4V199.1H659.7c10,1.9,18.4,9,21.7,18.9l108.5,322.4H824.9z
	 M287.4,398.1c12.2,0,23,7.7,26.9,19.3l37.8,111.3l104.4-310.8c3.3-9.8,11.5-16.8,21.3-18.8H199.1v199.1L287.4,398.1z M489,199.1
	c9.8,2,18,9,21.3,18.7l58.6,171.9l58.6-171.9c3.4-9.8,11.7-16.9,21.6-18.8H489z"/>
<path class="st2" d="M113.8,924.4c-7.9,0-14.2-6.4-14.2-14.2V113.8c0-7.9,6.4-14.2,14.2-14.2h796.4c7.9,0,14.2,6.4,14.2,14.2v796.4
	c0,7.9-6.4,14.2-14.2,14.2H113.8z M839.1,839.1V640H728.5c-6.1,0-11.5-3.9-13.5-9.7l-61.1-181.6l-71.6,210c-2,5.8-7.4,9.6-13.5,9.6
	c-6.1,0-11.5-3.9-13.5-9.6l-71.6-209.9L365.9,800.1c-1.9,5.8-7.4,9.7-13.5,9.7h0c-6.1,0-11.5-3.9-13.5-9.6L236.3,497.7l-51.5,0
	v341.4H839.1z M287.4,412.4c6.1,0,11.5,3.9,13.5,9.6l51.3,151.2l117.8-350.7c1.9-5.8,7.3-9.7,13.5-9.7h0c6.1,0,11.5,3.9,13.5,9.6
	l72,211.4l72-211.3c2-5.8,7.4-9.6,13.5-9.6h0c6.1,0,11.5,3.9,13.5,9.7l111.7,332.1h59.5V184.9H184.9v227.5L287.4,412.4z"/>
<path class="st3" d="M113.8,113.8v796.4h796.4V113.8H113.8z M853.3,170.7v398.2h-83.9L654.4,227l-85.5,250.9L483.4,227L352.2,617.6
	l-64.8-191.1l-116.7,0.1v-256H853.3z M170.7,853.3V483.5l75.9-0.1l105.9,312.1l131.3-391.1l85.1,249.7L654,404.4l74.5,221.4h124.8
	v227.6H170.7z"/>
</svg>
