<?xml version="1.0" encoding="utf-8"?>
<!-- Generator: Adobe Illustrator 25.2.1, SVG Export Plug-In . SVG Version: 6.00 Build 0)  -->
<svg version="1.1" id="Capa_1" xmlns="http://www.w3.org/2000/svg" xmlns:xlink="http://www.w3.org/1999/xlink" x="0px" y="0px"
	 viewBox="0 0 1024 1024" style="enable-background:new 0 0 1024 1024;" xml:space="preserve">
<style type="text/css">
	.st0{fill:#CF5A00;}
	.st1{fill:url(#SVGID_1_);}
	.st2{fill:url(#SVGID_2_);}
	.st3{fill:url(#SVGID_3_);}
	.st4{fill:url(#SVGID_4_);}
	.st5{fill:#ED6B00;}
	.st6{fill:url(#SVGID_5_);}
	.st7{fill:url(#SVGID_6_);}
	.st8{fill:url(#SVGID_7_);}
	.st9{fill:#CCCCCC;}
	.st10{fill:url(#SVGID_8_);}
	.st11{fill:url(#SVGID_9_);}
</style>
<path class="st0" d="M926.5,1024h-829c-13.5,0-24.4-10.9-24.4-24.4v-48.8h877.7v48.8C950.9,1013.1,939.9,1024,926.5,1024z"/>
<radialGradient id="SVGID_1_" cx="220.5346" cy="890.1415" r="33.1017" gradientTransform="matrix(21.3333 0 0 -14.976 -4188.667 13875.2539)" gradientUnits="userSpaceOnUse">
	<stop  offset="0" style="stop-color:#ED6B00"/>
	<stop  offset="0.451" style="stop-color:#F28104"/>
	<stop  offset="0.7" style="stop-color:#F7931E"/>
	<stop  offset="0.777" style="stop-color:#F79B20"/>
	<stop  offset="0.895" style="stop-color:#F5B026"/>
	<stop  offset="1" style="stop-color:#F4C92C"/>
</radialGradient>
<path class="st1" d="M811.7,633.9H212.3c-10,0-19,6.1-22.7,15.5L74.8,941.9c-6.3,16,5.5,33.3,22.7,33.3h828.9
	c17.2,0,28.9-17.3,22.7-33.2L834.4,649.4C830.8,640,821.8,633.9,811.7,633.9z"/>
<radialGradient id="SVGID_2_" cx="220.2969" cy="890.794" r="27.9531" gradientTransform="matrix(21.3333 0 0 -18.3893 -4188.667 16882.9551)" gradientUnits="userSpaceOnUse">
	<stop  offset="0.419" style="stop-color:#C04E00"/>
	<stop  offset="0.539" style="stop-color:#C55300"/>
	<stop  offset="0.684" style="stop-color:#D46100"/>
	<stop  offset="0.781" style="stop-color:#E26F00"/>
	<stop  offset="0.826" style="stop-color:#ED6B00;stop-opacity:0"/>
	<stop  offset="1" style="stop-color:#ED6B00;stop-opacity:6.300000e-02"/>
</radialGradient>
<path class="st2" d="M811.7,633.9H212.3c-10,0-19,6.1-22.7,15.5L74.8,941.9c-6.3,16,5.5,33.3,22.7,33.3h828.9
	c17.2,0,28.9-17.3,22.7-33.2L834.4,649.4C830.8,640,821.8,633.9,811.7,633.9z"/>
<radialGradient id="SVGID_3_" cx="220.3918" cy="882.8582" r="13.1429" gradientTransform="matrix(21.3333 0 0 -7.7291 -4188.667 7618.0674)" gradientUnits="userSpaceOnUse">
	<stop  offset="0.948" style="stop-color:#A1451A"/>
	<stop  offset="0.959" style="stop-color:#A64818;stop-opacity:0.806"/>
	<stop  offset="0.972" style="stop-color:#B54F13;stop-opacity:0.571"/>
	<stop  offset="0.986" style="stop-color:#CD5B0B;stop-opacity:0.316"/>
	<stop  offset="1" style="stop-color:#ED6B00;stop-opacity:6.300000e-02"/>
</radialGradient>
<path class="st3" d="M512,914.3c-157.2,0-280.4-53.5-280.4-121.9S354.8,670.5,512,670.5S792.4,724,792.4,792.4
	S669.2,914.3,512,914.3z"/>
<radialGradient id="SVGID_4_" cx="230.8363" cy="861.8052" r="13.6137" gradientTransform="matrix(-18.7819 0 0 7.7291 4825.1021 -5859.6675)" gradientUnits="userSpaceOnUse">
	<stop  offset="0.338" style="stop-color:#C04E00"/>
	<stop  offset="0.473" style="stop-color:#C55300"/>
	<stop  offset="0.636" style="stop-color:#D46200"/>
	<stop  offset="0.813" style="stop-color:#EC7900"/>
	<stop  offset="0.842" style="stop-color:#F17E00"/>
	<stop  offset="0.967" style="stop-color:#F17E00;stop-opacity:0"/>
</radialGradient>
<path class="st4" d="M494.5,914.3c-130.7,0-250.3-47.1-250.3-115.4S373.6,670.5,512,670.5S758.9,724,758.9,792.4
	S633,914.3,494.5,914.3z"/>
<path class="st5" d="M259,731.4c199.1-713.9,0,0,199.1-713.9C461.1,7.1,470.7,0,481.5,0h60.9c10.8,0,20.5,7.1,23.4,17.6
	c199.1,713.9,0,0,199.1,713.9c6.8,24.2,15.3,53.7,15.3,61c0,60.6-120.1,109.7-268.2,109.7S243.8,853,243.8,792.4
	C243.8,785.1,252.3,755.6,259,731.4z"/>
<linearGradient id="SVGID_5_" gradientUnits="userSpaceOnUse" x1="182.266" y1="902.0076" x2="238.8488" y2="887.163" gradientTransform="matrix(21.3333 0 0 -21.3333 -4188.667 19486.668)">
	<stop  offset="0.539" style="stop-color:#C04E00"/>
	<stop  offset="0.554" style="stop-color:#D36100"/>
	<stop  offset="0.575" style="stop-color:#E97600"/>
	<stop  offset="0.588" style="stop-color:#F17E00"/>
	<stop  offset="0.647" style="stop-color:#F17E00"/>
	<stop  offset="0.744" style="stop-color:#E77400;stop-opacity:0"/>
</linearGradient>
<path class="st6" d="M765,731.4c-199.1-713.9,0,0-199.1-713.9C562.9,7.1,553.3,0,542.5,0h-60.9c-10.8,0-20.5,7.1-23.4,17.6
	c-199.1,713.9,0,0-199.1,713.9c-6.8,24.2-15.3,53.7-15.3,61c0,60.6,120.1,109.7,268.2,109.7S780.2,853,780.2,792.4
	C780.2,785.1,771.7,755.6,765,731.4z"/>
<linearGradient id="SVGID_6_" gradientUnits="userSpaceOnUse" x1="336.4756" y1="902.0441" x2="393.1533" y2="887.5652" gradientTransform="matrix(-21.3333 0 0 -21.3333 8526 19486.668)">
	<stop  offset="0.563" style="stop-color:#A1451A"/>
	<stop  offset="0.565" style="stop-color:#A54719"/>
	<stop  offset="0.581" style="stop-color:#C25B0E"/>
	<stop  offset="0.597" style="stop-color:#D66906"/>
	<stop  offset="0.613" style="stop-color:#E37102"/>
	<stop  offset="0.628" style="stop-color:#E77400"/>
	<stop  offset="0.718" style="stop-color:#ED6B00;stop-opacity:0"/>
	<stop  offset="1" style="stop-color:#ED6B00;stop-opacity:6.300000e-02"/>
</linearGradient>
<path class="st7" d="M259,731.4c199.1-713.9,0,0,199.1-713.9C461.1,7.1,470.7,0,481.5,0h60.9c10.8,0,20.5,7.1,23.4,17.6
	c199.1,713.9,0,0,199.1,713.9c6.8,24.2,15.3,53.7,15.3,61c0,60.6-120.1,109.7-268.2,109.7S243.8,853,243.8,792.4
	C243.8,785.1,252.3,755.6,259,731.4z"/>
<radialGradient id="SVGID_7_" cx="220.3552" cy="928.4684" r="3.0423" gradientTransform="matrix(21.3333 0 0 -7.8784 -4188.667 7303.9341)" gradientUnits="userSpaceOnUse">
	<stop  offset="0.653" style="stop-color:#C04E00"/>
	<stop  offset="0.746" style="stop-color:#C95700;stop-opacity:0.663"/>
	<stop  offset="0.896" style="stop-color:#E16E00;stop-opacity:0.116"/>
	<stop  offset="0.927" style="stop-color:#E77400;stop-opacity:0"/>
</radialGradient>
<path class="st8" d="M467.1,4.8c7.4,4.4,24.7,7.4,44.9,7.4c20.2,0,37.5-3.1,44.9-7.4c-4.1-3-9.1-4.8-14.5-4.8h-60.9
	C476.2,0,471.2,1.8,467.1,4.8z"/>
<g>
	<path class="st9" d="M751.4,682.7c2.4,8.5-44.4,73.1-239.4,73.1s-241.8-64.7-239.4-73.1c20.7-74.2,36.3-130.4,48.3-173.1
		c1,1.5,2.2,3.2,3.4,4.6c9.3,11,50.5,46.6,187.7,46.6s178.5-35.6,187.7-46.6c1.2-1.5,2.4-3.2,3.4-4.6
		C715.2,552.2,730.7,608.5,751.4,682.7z M598.6,134.3c-22.9,7.3-51.2,11.9-86.6,11.9s-63.6-4.6-86.6-11.9
		c-7.3,26.1-48.3,173.1-49.2,176.5v0.2c0,4.6,39.7,30.2,135.8,30.2c94.8,0,134.8-24.9,135.8-30C647.8,311.1,601.5,145.1,598.6,134.3
		z"/>
	
		<linearGradient id="SVGID_8_" gradientUnits="userSpaceOnUse" x1="215.0489" y1="891.3508" x2="236.8889" y2="896.577" gradientTransform="matrix(21.3333 0 0 -21.3333 -4188.667 19486.668)">
		<stop  offset="0" style="stop-color:#F2F2F2;stop-opacity:6.000000e-02"/>
		<stop  offset="0.42" style="stop-color:#CCCCCC"/>
		<stop  offset="0.454" style="stop-color:#C4C4C4"/>
		<stop  offset="0.506" style="stop-color:#AFAFAF"/>
		<stop  offset="0.57" style="stop-color:#8D8D8D"/>
		<stop  offset="0.63" style="stop-color:#666666"/>
	</linearGradient>
	<path class="st10" d="M751.4,682.7c2.4,8.5-44.4,73.1-239.4,73.1s-241.8-64.7-239.4-73.1c20.7-74.2,36.3-130.4,48.3-173.1
		c1,1.5,2.2,3.2,3.4,4.6c9.3,11,50.5,46.6,187.7,46.6s178.5-35.6,187.7-46.6c1.2-1.5,2.4-3.2,3.4-4.6
		C715.2,552.2,730.7,608.5,751.4,682.7z M598.6,134.3c-22.9,7.3-51.2,11.9-86.6,11.9s-63.6-4.6-86.6-11.9
		c-7.3,26.1-48.3,173.1-49.2,176.5v0.2c0,4.6,39.7,30.2,135.8,30.2c94.8,0,134.8-24.9,135.8-30C647.8,311.1,601.5,145.1,598.6,134.3
		z"/>
	
		<linearGradient id="SVGID_9_" gradientUnits="userSpaceOnUse" x1="199.9495" y1="897.312" x2="233.0466" y2="889.7119" gradientTransform="matrix(21.3333 0 0 -21.3333 -4188.667 19486.668)">
		<stop  offset="0.362" style="stop-color:#666666"/>
		<stop  offset="0.42" style="stop-color:#8D8D8D;stop-opacity:0.712"/>
		<stop  offset="0.48" style="stop-color:#AFAFAF;stop-opacity:0.411"/>
		<stop  offset="0.53" style="stop-color:#C4C4C4;stop-opacity:0.163"/>
		<stop  offset="0.563" style="stop-color:#CCCCCC;stop-opacity:0"/>
		<stop  offset="1" style="stop-color:#F2F2F2;stop-opacity:6.000000e-02"/>
	</linearGradient>
	<path class="st11" d="M751.4,682.7c2.4,8.5-44.4,73.1-239.4,73.1s-241.8-64.7-239.4-73.1c20.7-74.2,36.3-130.4,48.3-173.1
		c1,1.5,2.2,3.2,3.4,4.6c9.3,11,50.5,46.6,187.7,46.6s178.5-35.6,187.7-46.6c1.2-1.5,2.4-3.2,3.4-4.6
		C715.2,552.2,730.7,608.5,751.4,682.7z M598.6,134.3c-22.9,7.3-51.2,11.9-86.6,11.9s-63.6-4.6-86.6-11.9
		c-7.3,26.1-48.3,173.1-49.2,176.5v0.2c0,4.6,39.7,30.2,135.8,30.2c94.8,0,134.8-24.9,135.8-30C647.8,311.1,601.5,145.1,598.6,134.3
		z"/>
</g>
</svg>
